<?xml version="1.0" encoding="UTF-8"?>
<svg version="1.1" xmlns="http://www.w3.org/2000/svg" width="320" height="94">
<path d="M0 0 C1.99908447 0.18254089 1.99908447 0.18254089 4 1 C5.55967189 3.38392408 6.84504178 5.6409697 8.109375 8.17578125 C8.66688446 9.25813301 8.66688446 9.25813301 9.23565674 10.36235046 C10.01866681 11.8898222 10.79493575 13.42076555 11.56494141 14.95483398 C12.74421608 17.30099292 13.94632597 19.63429249 15.15234375 21.96679688 C15.91024061 23.45241852 16.66679633 24.93872527 17.421875 26.42578125 C17.78118103 27.12383377 18.14048706 27.82188629 18.51068115 28.54109192 C20.24582373 32.02341112 21 34.03130219 21 38 C19.125 38.625 19.125 38.625 17 39 C16.34 38.34 15.68 37.68 15 37 C12.86306672 36.81558785 12.86306672 36.81558785 10.4296875 37.0234375 C9.53378906 37.075 8.63789063 37.1265625 7.71484375 37.1796875 C6.30912109 37.27636719 6.30912109 37.27636719 4.875 37.375 C3.93011719 37.43171875 2.98523438 37.4884375 2.01171875 37.546875 C-0.32626481 37.68857097 -2.66320944 37.83999783 -5 38 C-5.11988281 38.77730469 -5.23976563 39.55460937 -5.36328125 40.35546875 C-6 43 -6 43 -8.1875 45.3125 C-11.58623476 47.35174086 -13.10301814 47.71577218 -17 47 C-19.15884587 45.48566394 -21.02316015 43.75719098 -23 42 C-23.99 42 -24.98 42 -26 42 C-25.71125 42.55429687 -25.4225 43.10859375 -25.125 43.6796875 C-24.75375 44.40414062 -24.3825 45.12859375 -24 45.875 C-23.62875 46.59429687 -23.2575 47.31359375 -22.875 48.0546875 C-22 50 -22 50 -22 52 C-20.02 52.33 -18.04 52.66 -16 53 C-16.33 53.99 -16.66 54.98 -17 56 C-21.95 56 -26.9 56 -32 56 C-32.33 54.35 -32.66 52.7 -33 51 C-33.48033053 49.71331149 -33.99787606 48.43949222 -34.5625 47.1875 C-35.036875 46.135625 -35.51125 45.08375 -36 44 C-40.29 43.67 -44.58 43.34 -49 43 C-49.99 46.3 -50.98 49.6 -52 53 C-50.68 53.33 -49.36 53.66 -48 54 C-48.495 54.99 -48.495 54.99 -49 56 C-51.87602455 56.10852923 -54.74790832 56.1875515 -57.625 56.25 C-58.43324219 56.28351563 -59.24148437 56.31703125 -60.07421875 56.3515625 C-65.58943597 56.44124083 -68.63908385 55.68555303 -73 52 C-75.046875 49.96484375 -75.046875 49.96484375 -76.75 47.9375 C-77.32234375 47.26589844 -77.8946875 46.59429687 -78.484375 45.90234375 C-80 44 -80 44 -82 41 C-83.65 40.67 -85.3 40.34 -87 40 C-86.67 43.96 -86.34 47.92 -86 52 C-84.35 52.66 -82.7 53.32 -81 54 C-81.33 54.66 -81.66 55.32 -82 56 C-88.27 56 -94.54 56 -101 56 C-101 55.01 -101 54.02 -101 53 C-99.68 53 -98.36 53 -97 53 C-97 42.11 -97 31.22 -97 20 C-99.475 19.01 -99.475 19.01 -102 18 C-101.67 17.34 -101.34 16.68 -101 16 C-97.31265225 15.91223815 -93.62557653 15.85935397 -89.9375 15.8125 C-88.37999023 15.77479492 -88.37999023 15.77479492 -86.79101562 15.73632812 C-79.71321081 15.66892046 -75.13441482 16.46600382 -69.0625 20.1875 C-67.19199653 23.37835886 -67.2014682 26.50255454 -68 30 C-69.71748566 32.93217117 -71.73885139 35.46966703 -74 38 C-72.25719203 39.96516623 -70.50635594 41.92200369 -68.75 43.875 C-68.25886719 44.43058594 -67.76773438 44.98617187 -67.26171875 45.55859375 C-64.73168627 48.35849636 -62.57508995 50.65508521 -59 52 C-58.60143799 50.73506714 -58.60143799 50.73506714 -58.19482422 49.44458008 C-56.21101456 43.7254198 -53.61968456 38.27713074 -51.08740234 32.78491211 C-50.44302382 31.3805854 -49.8050448 29.97330548 -49.17333984 28.56323242 C-48.2571435 26.51851563 -47.3223456 24.48329863 -46.3828125 22.44921875 C-45.96384201 21.5008741 -45.96384201 21.5008741 -45.53640747 20.53337097 C-44.70751953 18.7722168 -44.70751953 18.7722168 -43 16 C-41.68 15.67 -40.36 15.34 -39 15 C-36.36 20.28 -33.72 25.56 -31 31 C-28.916875 29.205625 -26.83375 27.41125 -24.6875 25.5625 C-19.26279308 20.89911079 -13.77946921 16.32619935 -8.20703125 11.83984375 C-6.02177442 10.08723326 -6.02177442 10.08723326 -4.32421875 8.25390625 C-3 7 -3 7 -1 7 C-1.309375 5.824375 -1.309375 5.824375 -1.625 4.625 C-1.74875 3.75875 -1.8725 2.8925 -2 2 C-1.34 1.34 -0.68 0.68 0 0 Z M-3.125 20.375 C-3.73230957 20.72498047 -4.33961914 21.07496094 -4.96533203 21.43554688 C-12.42414907 25.77123256 -19.71377612 30.38223733 -27 35 C-22.92219437 36.35926854 -20.47720526 34.84861611 -16.70703125 33.25390625 C-16.00100266 32.96394272 -15.29497406 32.67397919 -14.56755066 32.37522888 C-12.31208336 31.4465199 -10.06235307 30.50471745 -7.8125 29.5625 C-6.28486452 28.93077104 -4.75687363 28.29990079 -3.22851562 27.66992188 C0.51852061 26.12321744 4.26046467 24.5647477 8 23 C7.01 21.02 6.02 19.04 5 17 C1.79600931 17 -0.37468837 18.78996847 -3.125 20.375 Z M-87 21 C-87 25.95 -87 30.9 -87 36 C-80.60591666 36.62661463 -80.60591666 36.62661463 -78.0859375 34.78125 C-76.72418015 32.54757607 -76.59892887 31.10711305 -76.625 28.5 C-76.61726563 27.7265625 -76.60953125 26.953125 -76.6015625 26.15625 C-76.87294222 23.9701351 -76.87294222 23.9701351 -78.0859375 22.21875 C-80.60591666 20.37338537 -80.60591666 20.37338537 -87 21 Z M-43 29 C-43.99 31.97 -44.98 34.94 -46 38 C-43.36 38 -40.72 38 -38 38 C-39.32 35.03 -40.64 32.06 -42 29 C-42.33 29 -42.66 29 -43 29 Z M-13 39 C-13.99 39.66 -14.98 40.32 -16 41 C-14.35 40.67 -12.7 40.34 -11 40 C-11.66 39.67 -12.32 39.34 -13 39 Z " fill="#FD950B" transform="translate(281,19)"/>
<path d="M0 0 C2.57804815 1.71663674 3.29189819 3.23383322 4.59350586 6.03466797 C5.05563477 7.01330811 5.51776367 7.99194824 5.99389648 9.00024414 C6.48180664 10.06605713 6.9697168 11.13187012 7.47241211 12.22998047 C7.98739258 13.32737549 8.50237305 14.42477051 9.03295898 15.55541992 C10.71483924 19.14864273 12.37764724 22.75036775 14.03491211 26.35498047 C14.62222432 27.63057536 15.20962742 28.9061284 15.79711914 30.18164062 C16.08982193 30.81730957 16.38252472 31.45297852 16.68409729 32.10791016 C17.56315387 34.01575497 18.44363448 35.92293804 19.32421875 37.83007812 C20.4471902 40.26254081 21.56057015 42.69869261 22.66943359 45.13769531 C26.3976192 54.55694321 26.3976192 54.55694321 33.17553711 61.59716797 C33.87163086 61.80599609 34.56772461 62.01482422 35.28491211 62.22998047 C36.52241211 62.60123047 37.75991211 62.97248047 39.03491211 63.35498047 C39.03491211 64.34498047 39.03491211 65.33498047 39.03491211 66.35498047 C30.45491211 66.35498047 21.87491211 66.35498047 13.03491211 66.35498047 C13.03491211 65.03498047 13.03491211 63.71498047 13.03491211 62.35498047 C12.50542572 60.21027253 12.50542572 60.21027253 11.72241211 58.04248047 C11.4787793 57.32447266 11.23514648 56.60646484 10.98413086 55.86669922 C9.77051982 52.65537453 8.38723528 49.51040121 7.03491211 46.35498047 C-0.22508789 46.35498047 -7.48508789 46.35498047 -14.96508789 46.35498047 C-16.17165039 48.92279297 -16.17165039 48.92279297 -17.40258789 51.54248047 C-17.85504883 52.50541016 -18.30750977 53.46833984 -18.77368164 54.46044922 C-19.86890211 57.12129633 -20.51463586 59.52282802 -20.96508789 62.35498047 C-19.31508789 62.35498047 -17.66508789 62.35498047 -15.96508789 62.35498047 C-15.63508789 63.67498047 -15.30508789 64.99498047 -14.96508789 66.35498047 C-23.54508789 66.35498047 -32.12508789 66.35498047 -40.96508789 66.35498047 C-40.63508789 65.03498047 -40.30508789 63.71498047 -39.96508789 62.35498047 C-38.37567383 62.10361328 -38.37567383 62.10361328 -36.75415039 61.84716797 C-33.54344232 60.9102411 -32.25130206 59.85953779 -30.55102539 56.98779297 C-29.78833774 55.49807315 -29.05321608 53.99404974 -28.34008789 52.47998047 C-27.93113281 51.65933105 -27.52217773 50.83868164 -27.10083008 49.99316406 C-25.68921982 47.1285489 -24.3236993 44.24510092 -22.96508789 41.35498047 C-22.42980469 40.22318359 -21.89452148 39.09138672 -21.34301758 37.92529297 C-18.54507777 31.99153679 -15.77771345 26.04485436 -13.04321289 20.08154297 C-12.53725586 18.9797168 -12.03129883 17.87789062 -11.51000977 16.74267578 C-10.43320861 14.38147274 -9.36676125 12.01740099 -8.31079102 9.64697266 C-7.77905273 8.46522461 -7.24731445 7.28347656 -6.69946289 6.06591797 C-6.2221875 4.99390137 -5.74491211 3.92188477 -5.25317383 2.81738281 C-3.7688063 -0.02024625 -3.17565181 -1.04237447 0 0 Z M-4.96508789 20.35498047 C-6.13387052 23.16661827 -7.30020737 25.97922655 -8.46508789 28.79248047 C-8.79895508 29.59492187 -9.13282227 30.39736328 -9.47680664 31.22412109 C-9.79262695 31.98789062 -10.10844727 32.75166016 -10.43383789 33.53857422 C-10.72709961 34.24554443 -11.02036133 34.95251465 -11.32250977 35.6809082 C-12.0248128 37.2117183 -12.0248128 37.2117183 -11.96508789 38.35498047 C-6.68508789 38.35498047 -1.40508789 38.35498047 4.03491211 38.35498047 C3.05707672 35.72947751 2.07770581 33.10456542 1.09741211 30.47998047 C0.81961914 29.73361328 0.54182617 28.98724609 0.25561523 28.21826172 C-1.21607983 24.22773532 -1.21607983 24.22773532 -2.96508789 20.35498047 C-3.62508789 20.35498047 -4.28508789 20.35498047 -4.96508789 20.35498047 Z " fill="#FD970C" transform="translate(41.965087890625,8.64501953125)"/>
<path d="M0 0 C4.55158823 3.78474456 7.25086443 6.651806 7.8984375 12.66796875 C8.26486626 19.73788831 6.79406985 24.74746861 2.18359375 30.140625 C-3.19906324 35.31968267 -9.55564795 37.01210067 -16.84375 37.79296875 C-25.07538488 36.91100787 -31.77297788 34.76461442 -37.34375 28.41796875 C-40.16007957 24.09959674 -41.62738072 19.59651681 -41.34375 14.41796875 C-39.91429132 8.30253625 -37.44909089 3.42224677 -32.39453125 -0.3984375 C-22.39105264 -6.17187373 -9.73260796 -6.56951037 0 0 Z M-27.34375 3.41796875 C-31.1844973 8.53896515 -31.10113396 14.28054697 -30.34375 20.41796875 C-29.29145733 24.39550267 -27.84392561 27.26924426 -24.54296875 29.796875 C-20.16336793 32.23754575 -16.38805546 33.08419777 -11.34375 32.41796875 C-7.08704417 30.48310246 -4.33142337 28.0218349 -2.65625 23.60546875 C-1.83468926 17.85454357 -2.23388072 12.84334691 -4.34375 7.41796875 C-7.28215441 3.84423366 -9.84424371 1.59641087 -14.34375 0.41796875 C-19.55063636 -0.05538456 -22.98969689 0.44929617 -27.34375 3.41796875 Z " fill="#FD9D1C" transform="translate(168.34375,38.58203125)"/>
<path d="M0 0 C1.26026798 2.52053595 0.91874445 3.8542098 0.5625 6.625 C0.40974609 7.85089844 0.40974609 7.85089844 0.25390625 9.1015625 C0.17011719 9.72804688 0.08632812 10.35453125 0 11 C-0.99 11 -1.98 11 -3 11 C-3.4125 10.21625 -3.825 9.4325 -4.25 8.625 C-5.83648647 5.71083761 -5.83648647 5.71083761 -9.25 4.6875 C-15.34456306 3.57016344 -20.25162905 3.51774891 -26 6 C-27.95046942 7.61418159 -28.87018693 8.74037386 -30 11 C-30.75347884 20.52871611 -30.75347884 20.52871611 -27 29 C-21.8398013 33.7731838 -16.73924246 33.67125647 -10 34 C-10 30.04 -10 26.08 -10 22 C-11.32 21.67 -12.64 21.34 -14 21 C-14 20.01 -14 19.02 -14 18 C-7.73 18 -1.46 18 5 18 C5 18.99 5 19.98 5 21 C4.01 21.33 3.02 21.66 2 22 C1.98582031 22.97582031 1.97164062 23.95164062 1.95703125 24.95703125 C1.90933594 26.22933594 1.86164063 27.50164063 1.8125 28.8125 C1.77769531 30.07707031 1.74289063 31.34164062 1.70703125 32.64453125 C1 36 1 36 -1.1328125 37.8984375 C-9.35548619 41.05755736 -19.69868059 40.92563861 -28 38 C-34.00221613 35.13435862 -38.05827796 31.59218578 -41.25 25.6875 C-43.00127763 19.41208849 -42.45709357 14.5131331 -39.3359375 8.890625 C-35.25210465 3.11116565 -30.07915466 -0.0729194 -23.25 -1.625 C-15.41717846 -2.5287871 -7.61977456 -2.20429193 0 0 Z " fill="#FD9810" transform="translate(119,36)"/>
<path d="M0 0 C0.79921875 -0.02449219 1.5984375 -0.04898438 2.421875 -0.07421875 C8.71985426 -0.10529431 12.295369 1.50458651 16.89453125 5.97265625 C21.41869334 11.64677258 21.9859146 16.29970679 21.25 23.375 C19.1360495 30.62101107 14.13949253 35.1385418 7.75 38.8125 C4.3870916 39.56915439 1.60340431 39.03253026 -1.75 38.375 C-1.75 37.715 -1.75 37.055 -1.75 36.375 C-0.5125 36.25125 0.725 36.1275 2 36 C4.92886392 35.27817006 5.96676678 34.79595926 7.671875 32.26171875 C11.46590274 23.20279019 10.29033905 16.49601715 7.25 7.375 C5.59795544 6.67288106 3.93076231 6.00528587 2.25 5.375 C1.92 4.715 1.59 4.055 1.25 3.375 C-2.776591 2.60065558 -6.65386029 2.25087455 -10.75 2.375 C-7.68153489 -0.69346511 -4.10882818 0.00650131 0 0 Z " fill="#FD980E" transform="translate(154.75,35.625)"/>
<path d="M0 0 C2.31 0.66 4.62 1.32 7 2 C7 2.99 7 3.98 7 5 C6.01 5.33 5.02 5.66 4 6 C2.28432339 9.50294871 2.28432339 9.50294871 1 13 C3.64 13 6.28 13 9 13 C9.495 13.99 9.495 13.99 10 15 C6.37 15.33 2.74 15.66 -1 16 C-0.07316406 16.04898438 0.85367188 16.09796875 1.80859375 16.1484375 C3.60490234 16.26058594 3.60490234 16.26058594 5.4375 16.375 C7.22994141 16.47941406 7.22994141 16.47941406 9.05859375 16.5859375 C10.02925781 16.72257812 10.99992187 16.85921875 12 17 C12.495 17.99 12.495 17.99 13 19 C8.05 18.67 3.1 18.34 -2 18 C-2.99 21.3 -3.98 24.6 -5 28 C-3.68 28.33 -2.36 28.66 -1 29 C-1.33 29.66 -1.66 30.32 -2 31 C-4.87602455 31.10852923 -7.74790832 31.1875515 -10.625 31.25 C-11.43324219 31.28351563 -12.24148437 31.31703125 -13.07421875 31.3515625 C-18.57928562 31.44107578 -21.63574491 30.67236099 -26 27 C-28.375 24.25 -28.375 24.25 -30 22 C-27.45435308 23.13139863 -25.7244789 24.24651888 -23.625 26.125 C-20.48542488 28.36755366 -18.77315072 28.35099077 -15 28 C-17.64 25.69 -20.28 23.38 -23 21 C-18.71464033 21 -17.15057301 23.2516278 -14 26 C-13.34 26.33 -12.68 26.66 -12 27 C-11.77570313 26.23429687 -11.55140625 25.46859375 -11.3203125 24.6796875 C-9.51752396 19.65534784 -7.19777627 14.92670556 -4.875 10.125 C-4.40707031 9.15046875 -3.93914062 8.1759375 -3.45703125 7.171875 C-2.30785155 4.77970501 -1.15542757 2.38915684 0 0 Z " fill="#FE9F1F" transform="translate(234,44)"/>
<path d="M0 0 C1.26026798 2.52053595 0.91874445 3.8542098 0.5625 6.625 C0.40974609 7.85089844 0.40974609 7.85089844 0.25390625 9.1015625 C0.17011719 9.72804688 0.08632812 10.35453125 0 11 C-0.99 11 -1.98 11 -3 11 C-3.4125 10.21625 -3.825 9.4325 -4.25 8.625 C-5.83648647 5.71083761 -5.83648647 5.71083761 -9.25 4.6875 C-15.79089466 3.48833598 -20.77755041 3.96817973 -27 6 C-26.67 5.01 -26.34 4.02 -26 3 C-22.4375 1.8125 -22.4375 1.8125 -19 1 C-25.41474337 1.2332634 -28.89942214 2.87124675 -34.01953125 6.72265625 C-36 8 -36 8 -39 8 C-27.57605715 -2.60187252 -15.02141745 -4.34548148 0 0 Z " fill="#FE9C1B" transform="translate(119,36)"/>
<path d="M0 0 C7.59 0 15.18 0 23 0 C23 0.66 23 1.32 23 2 C14.585 2.495 14.585 2.495 6 3 C6.02320313 5.41957031 6.04640625 7.83914062 6.0703125 10.33203125 C6.08590961 12.67520625 6.098054 15.01837548 6.10986328 17.36157227 C6.11992142 18.99017932 6.13356958 20.61876832 6.15087891 22.24731445 C6.17513574 24.58809872 6.18648483 26.92864424 6.1953125 29.26953125 C6.20563507 29.99775589 6.21595764 30.72598053 6.22659302 31.47627258 C6.22742249 35.21275069 6.12883296 36.80675056 4 40 C2.68 40 1.36 40 0 40 C0 39.01 0 38.02 0 37 C1.32 37 2.64 37 4 37 C4 26.11 4 15.22 4 4 C1.525 3.01 1.525 3.01 -1 2 C-0.67 1.34 -0.34 0.68 0 0 Z " fill="#FE9C1B" transform="translate(180,35)"/>
<path d="M0 0 C0.66 0.33 1.32 0.66 2 1 C1.34 3.31 0.68 5.62 0 8 C1.65 8 3.3 8 5 8 C5.33 9.32 5.66 10.64 6 12 C-2.58 12 -11.16 12 -20 12 C-19.67 10.68 -19.34 9.36 -19 8 C-17.906875 7.731875 -16.81375 7.46375 -15.6875 7.1875 C-12.38307337 6.12336261 -11.05039578 5.65345336 -9 3 C-9.25 4.8125 -9.25 4.8125 -10 7 C-11.32 7.99 -12.64 8.98 -14 10 C-7.565 9.505 -7.565 9.505 -1 9 C-1.33 7.68 -1.66 6.36 -2 5 C-1.0625 2.25 -1.0625 2.25 0 0 Z " fill="#FEA92E" transform="translate(21,63)"/>
<path d="M0 0 C0.66 0 1.32 0 2 0 C2.76020994 1.24049761 3.45854849 2.51921123 4.125 3.8125 C6.95731966 8.61808741 9.71791552 9.56757031 15 11 C15 11.99 15 12.98 15 14 C6.42 14 -2.16 14 -11 14 C-11 12.68 -11 11.36 -11 10 C-10.67 10.66 -10.34 11.32 -10 12 C-3.4 12 3.2 12 10 12 C7.525 10.515 7.525 10.515 5 9 C3.41796875 7.24609375 3.41796875 7.24609375 2.1875 5.4375 C1.76855469 4.83808594 1.34960938 4.23867187 0.91796875 3.62109375 C0 2 0 2 0 0 Z " fill="#FEA424" transform="translate(66,61)"/>
<path d="M0 0 C6.27 0 12.54 0 19 0 C19 0.99 19 1.98 19 3 C18.01 3.33 17.02 3.66 16 4 C15.96261719 4.98742188 15.92523438 5.97484375 15.88671875 6.9921875 C15.82097656 8.27351563 15.75523438 9.55484375 15.6875 10.875 C15.62949219 12.15117188 15.57148437 13.42734375 15.51171875 14.7421875 C15.34285156 15.81726563 15.17398438 16.89234375 15 18 C14.01 18.66 13.02 19.32 12 20 C12.33 14.39 12.66 8.78 13 3 C10.36 2.67 7.72 2.34 5 2 C4.67 2.66 4.34 3.32 4 4 C2.68 3.67 1.36 3.34 0 3 C0 2.01 0 1.02 0 0 Z " fill="#FEA329" transform="translate(105,54)"/>
<path d="M0 0 C1.77007714 -0.08114106 3.54122098 -0.13925505 5.3125 -0.1875 C6.29863281 -0.22230469 7.28476562 -0.25710937 8.30078125 -0.29296875 C11 0 11 0 12.85546875 1.51171875 C13.23316406 2.00285156 13.61085938 2.49398437 14 3 C13.34 3.66 12.68 4.32 12 5 C9.1796875 4.9765625 9.1796875 4.9765625 5.875 4.625 C4.77929688 4.51414062 3.68359375 4.40328125 2.5546875 4.2890625 C1.29011719 4.14597656 1.29011719 4.14597656 0 4 C0 2.68 0 1.36 0 0 Z " fill="#FBAA3F" transform="translate(301,45)"/>
<path d="M0 0 C0 0.99 0 1.98 0 3 C-1.59766103 3.86627399 -3.20339944 4.71766465 -4.8125 5.5625 C-5.70582031 6.03816406 -6.59914063 6.51382813 -7.51953125 7.00390625 C-10 8 -10 8 -13 7 C-11.62071723 3.60539215 -10.35343571 2.27474832 -7.0625 0.6875 C-6.37285156 0.34074219 -5.68320312 -0.00601562 -4.97265625 -0.36328125 C-3 -1 -3 -1 0 0 Z " fill="#F9950B" transform="translate(311,29)"/>
<path d="M0 0 C0.33 0.66 0.66 1.32 1 2 C0.14277344 2.03738281 -0.71445313 2.07476562 -1.59765625 2.11328125 C-9.94293868 2.59311147 -15.27133503 3.49032166 -22.25 8.1875 C-25 10 -25 10 -28 10 C-19.01605915 1.66254621 -12.16585436 -0.24331709 0 0 Z " fill="#FEAA39" transform="translate(108,34)"/>
<path d="M0 0 C0.66 0 1.32 0 2 0 C2.33 4.29 2.66 8.58 3 13 C5.475 13.99 5.475 13.99 8 15 C7.67 15.66 7.34 16.32 7 17 C2.71 16.67 -1.58 16.34 -6 16 C-6 15.67 -6 15.34 -6 15 C-2.535 14.505 -2.535 14.505 1 14 C0.67 13.01 0.34 12.02 0 11 C-0.0685495 9.10529184 -0.08480372 7.2083166 -0.0625 5.3125 C-0.05347656 4.31863281 -0.04445312 3.32476562 -0.03515625 2.30078125 C-0.02355469 1.54152344 -0.01195312 0.78226563 0 0 Z " fill="#FE9C17" transform="translate(192,58)"/>
<path d="M0 0 C0.33 0 0.66 0 1 0 C1.04944705 4.50234373 1.08574161 9.0045293 1.10986328 13.50708008 C1.11991935 15.03868361 1.133566 16.57026795 1.15087891 18.10180664 C1.17514498 20.30359636 1.18648688 22.50513219 1.1953125 24.70703125 C1.20563507 25.39150833 1.21595764 26.07598541 1.22659302 26.78120422 C1.22745382 30.43061661 1.08567666 31.87148502 -1 35 C-2.32 35 -3.64 35 -5 35 C-5 34.01 -5 33.02 -5 32 C-3.68 32 -2.36 32 -1 32 C-0.67 21.44 -0.34 10.88 0 0 Z " fill="#FD960B" transform="translate(185,40)"/>
<path d="M0 0 C0.99 0.33 1.98 0.66 3 1 C2.41978222 4.2548802 1.47352859 5.93652408 -0.875 8.25 C-1.38804687 8.77078125 -1.90109375 9.2915625 -2.4296875 9.828125 C-4 11 -4 11 -7 11 C-6.40716379 7.60807637 -5.23256811 5.7892243 -2.9375 3.25 C-2.38964844 2.63640625 -1.84179688 2.0228125 -1.27734375 1.390625 C-0.85582031 0.93171875 -0.43429687 0.4728125 0 0 Z " fill="#F99E28" transform="translate(296,16)"/>
<path d="M0 0 C0.66 0 1.32 0 2 0 C2.33 1.32 2.66 2.64 3 4 C5.97 4 8.94 4 12 4 C12.33 3.34 12.66 2.68 13 2 C14.32 2.33 15.64 2.66 17 3 C16.67 3.99 16.34 4.98 16 6 C11.05 6 6.1 6 1 6 C0 1 0 1 0 0 Z " fill="#FEA930" transform="translate(248,69)"/>
<path d="M0 0 C1.4540625 0.0309375 1.4540625 0.0309375 2.9375 0.0625 C2.9375 0.7225 2.9375 1.3825 2.9375 2.0625 C1.2875 2.0625 -0.3625 2.0625 -2.0625 2.0625 C-1.7325 7.3425 -1.4025 12.6225 -1.0625 18.0625 C-2.0525 17.7325 -3.0425 17.4025 -4.0625 17.0625 C-4.08934679 14.41659986 -4.10926357 11.77096904 -4.125 9.125 C-4.13337891 8.37025391 -4.14175781 7.61550781 -4.15039062 6.83789062 C-4.15902441 4.91255687 -4.11474333 2.98714419 -4.0625 1.0625 C-3.0625 0.0625 -3.0625 0.0625 0 0 Z " fill="#FE9E1D" transform="translate(196.0625,37.9375)"/>
<path d="M0 0 C1.77503906 0.03480469 1.77503906 0.03480469 3.5859375 0.0703125 C5.36871094 0.09738281 5.36871094 0.09738281 7.1875 0.125 C8.10273438 0.14820313 9.01796875 0.17140625 9.9609375 0.1953125 C10.2909375 1.5153125 10.6209375 2.8353125 10.9609375 4.1953125 C10.22488281 4.0509375 9.48882812 3.9065625 8.73046875 3.7578125 C7.26673828 3.479375 7.26673828 3.479375 5.7734375 3.1953125 C4.81050781 3.0096875 3.84757813 2.8240625 2.85546875 2.6328125 C0.1675169 2.22653638 -2.32677269 2.11597678 -5.0390625 2.1953125 C-3.0390625 0.1953125 -3.0390625 0.1953125 0 0 Z " fill="#FD8F01" transform="translate(149.0390625,35.8046875)"/>
<path d="M0 0 C0 0.99 0 1.98 0 3 C-4.29 2.67 -8.58 2.34 -13 2 C-13 1.67 -13 1.34 -13 1 C-8.62426048 0.40667939 -4.42471556 -0.13827236 0 0 Z " fill="#FEA82D" transform="translate(199,72)"/>
<path d="M0 0 C1.32 0.66 2.64 1.32 4 2 C2.1875 4 2.1875 4 0 6 C-0.99 6 -1.98 6 -3 6 C-2.42655063 3.13275314 -2.1385485 2.1385485 0 0 Z " fill="#F88F09" transform="translate(292,21)"/>
<path d="M0 0 C0.66 0.33 1.32 0.66 2 1 C1.67 1.99 1.34 2.98 1 4 C2.32 4.33 3.64 4.66 5 5 C4.67 5.66 4.34 6.32 4 7 C2.35 6.67 0.7 6.34 -1 6 C-0.67 4.02 -0.34 2.04 0 0 Z " fill="#FEAB33" transform="translate(228,68)"/>
<path d="M0 0 C0.33 0.66 0.66 1.32 1 2 C4.63 2 8.26 2 12 2 C12 2.33 12 2.66 12 3 C6.06 3.495 6.06 3.495 0 4 C0 2.68 0 1.36 0 0 Z " fill="#FEB54E" transform="translate(55,71)"/>
<path d="M0 0 C0.66 0 1.32 0 2 0 C1.49396008 2.16874252 1.00016187 3.99967627 0 6 C-1.32 6 -2.64 6 -4 6 C-4 5.01 -4 4.02 -4 3 C-2.68 3 -1.36 3 0 3 C0 2.01 0 1.02 0 0 Z " fill="#FEB54C" transform="translate(184,69)"/>
<path d="M0 0 C0 0.99 0 1.98 0 3 C-2.31 3 -4.62 3 -7 3 C-7 2.34 -7 1.68 -7 1 C-3.375 -1.125 -3.375 -1.125 0 0 Z " fill="#FCAF43" transform="translate(311,29)"/>
<path d="M0 0 C0.33 0.66 0.66 1.32 1 2 C0.0625 4.125 0.0625 4.125 -1 6 C-1.99 5.67 -2.98 5.34 -4 5 C-2.25 1.125 -2.25 1.125 0 0 Z " fill="#FBA938" transform="translate(302,31)"/>
</svg>
